<svg width="997" height="614" viewBox="0 0 997 614" fill="none" xmlns="http://www.w3.org/2000/svg">
<g id="MixColores">
<path id="Rojo" d="M698.453 143.434C743.147 184.719 780.265 227.519 810.945 282.439C841.624 336.98 866.243 402.884 836.7 437.73C806.778 472.576 722.694 476.742 665.501 487.348C608.687 497.574 578.765 514.618 533.314 536.586C487.863 558.554 426.504 585.068 367.039 575.22C307.952 565.372 250.759 519.542 250.002 466.895C249.623 414.626 306.058 355.918 328.026 285.469C350.373 215.398 339.01 133.965 370.069 88.1352C401.127 42.3053 475.364 32.4575 538.238 47.6079C601.491 62.3795 654.138 101.77 698.453 143.434Z" fill="url(#paint0_linear)"/>
<path id="Verde" d="M502.765 267.261C516.519 304.676 496.472 351.74 464.031 385.851C431.811 419.823 386.836 440.759 345.218 439.849C303.24 438.854 264.037 416.068 219.132 401.466C174.227 386.864 123.482 380.223 92.0871 351.644C60.8309 323.287 49.0086 272.631 73.6734 240.898C97.9775 209.082 158.63 195.966 191.21 162.078C223.707 128.55 228.27 74.4705 251.56 54.3972C274.851 34.3239 317.007 48.4786 343.769 74.0815C370.531 99.6844 381.675 136.874 411.205 169.394C440.957 201.774 488.873 229.624 502.765 267.261Z" fill="url(#paint1_linear)"/>
<path id="Azul" d="M928.202 375.443C921.58 407.86 900.451 436.743 877.126 462.317C853.542 487.992 827.919 509.998 796.837 531.768C765.496 553.639 728.595 575.015 693.783 572.913C658.87 570.553 625.687 544.557 597.05 516.475C568.513 488.651 544.006 458.944 555.922 428.619C567.838 398.293 616.021 367.708 625.639 333.814C635.617 300.078 607.132 263.291 605.548 233.507C603.964 203.723 629.541 180.841 659.862 166.227C690.027 151.973 725.295 146.145 762.954 145.636C800.715 145.386 841.125 150.353 867.842 172.036C894.402 194.079 907.009 232.94 917.154 270.087C927.401 307.492 935.082 342.926 928.202 375.443Z" fill="url(#paint2_linear)"/>
</g>
<defs>
<linearGradient id="paint0_linear" x1="250" y1="463.5" x2="721.5" y2="155.5" gradientUnits="userSpaceOnUse">
<stop stop-color="#FF9900"/>
<stop offset="1" stop-color="#FF0066" stop-opacity="0.62"/>
</linearGradient>
<linearGradient id="paint1_linear" x1="443.801" y1="169.727" x2="105.796" y2="380.416" gradientUnits="userSpaceOnUse">
<stop stop-color="#14FF00"/>
<stop offset="0.666657" stop-color="#DBFF00" stop-opacity="0.84"/>
</linearGradient>
<linearGradient id="paint2_linear" x1="923.224" y1="277.111" x2="542.23" y2="427.022" gradientUnits="userSpaceOnUse">
<stop offset="0.0971556" stop-color="#0066FF"/>
<stop offset="1" stop-color="#00FFF0"/>
</linearGradient>
</defs>
</svg>
